<?xml version="1.0" encoding="UTF-8" standalone="no"?>
<svg
   xmlns:dc="http://purl.org/dc/elements/1.1/"
   xmlns:cc="http://creativecommons.org/ns#"
   xmlns:rdf="http://www.w3.org/1999/02/22-rdf-syntax-ns#"
   xmlns:svg="http://www.w3.org/2000/svg"
   xmlns="http://www.w3.org/2000/svg"
   xmlns:sodipodi="http://sodipodi.sourceforge.net/DTD/sodipodi-0.dtd"
   xmlns:inkscape="http://www.inkscape.org/namespaces/inkscape"
   id="b76bd6b3-ad77-41ff-b778-1d1d054fe577"
   data-name="Layer 1"
   width="570"
   height="511.67482"
   viewBox="0 0 570 511.67482"
   version="1.1"
   sodipodi:docname="mail_stop.svg"
   inkscape:version="1.0.1 (3bc2e81, 2020-09-07)">
  <metadata
     id="metadata272">
    <rdf:RDF>
      <cc:Work
         rdf:about="">
        <dc:format>image/svg+xml</dc:format>
        <dc:type
           rdf:resource="http://purl.org/dc/dcmitype/StillImage" />
        <dc:title></dc:title>
      </cc:Work>
    </rdf:RDF>
  </metadata>
  <defs
     id="defs270" />
  <sodipodi:namedview
     pagecolor="#ffffff"
     bordercolor="#666666"
     borderopacity="1"
     objecttolerance="10"
     gridtolerance="10"
     guidetolerance="10"
     inkscape:pageopacity="0"
     inkscape:pageshadow="2"
     inkscape:window-width="1920"
     inkscape:window-height="2085"
     id="namedview268"
     showgrid="false"
     inkscape:snap-center="false"
     inkscape:zoom="0.92441521"
     inkscape:cx="220.09818"
     inkscape:cy="573.19537"
     inkscape:window-x="0"
     inkscape:window-y="0"
     inkscape:window-maximized="0"
     inkscape:current-layer="b76bd6b3-ad77-41ff-b778-1d1d054fe577" />
  <path
     d="M879.99927,389.83741a.99678.99678,0,0,1-.5708-.1792L602.86963,197.05469a5.01548,5.01548,0,0,0-5.72852.00977L322.57434,389.65626a1.00019,1.00019,0,0,1-1.14868-1.6377l274.567-192.5918a7.02216,7.02216,0,0,1,8.02-.01318l276.55883,192.603a1.00019,1.00019,0,0,1-.57226,1.8208Z"
     transform="translate(-315 -194.16259)"
     fill="#3f3d56"
     id="path251" />
  <polygon
     points="23.264 202.502 285.276 8.319 549.276 216.319 298.776 364.819 162.776 333.819 23.264 202.502"
     fill="#e6e6e6"
     id="polygon253" />
  <path
     d="M489.25553,650.70367H359.81522a6.04737,6.04737,0,1,1,0-12.09473H489.25553a6.04737,6.04737,0,1,1,0,12.09473Z"
     transform="translate(-315 -194.16259)"
     fill="#c62828"
     id="path255" />
  <path
     d="M406.25553,624.70367H359.81522a6.04737,6.04737,0,1,1,0-12.09473h46.44031a6.04737,6.04737,0,1,1,0,12.09473Z"
     transform="translate(-315 -194.16259)"
     fill="#c62828"
     id="path257" />
  <path
     d="M603.96016,504.82207a7.56366,7.56366,0,0,1-2.86914-.562L439.5002,437.21123v-209.874a7.00817,7.00817,0,0,1,7-7h310a7.00818,7.00818,0,0,1,7,7v210.0205l-.30371.12989L606.91622,504.22734A7.61624,7.61624,0,0,1,603.96016,504.82207Z"
     transform="translate(-315 -194.16259)"
     fill="#fff"
     id="path259" />
  <path
     d="M603.96016,505.32158a8.07177,8.07177,0,0,1-3.05957-.59863L439.0002,437.54521v-210.208a7.50851,7.50851,0,0,1,7.5-7.5h310a7.50851,7.50851,0,0,1,7.5,7.5V437.68779l-156.8877,66.999A8.10957,8.10957,0,0,1,603.96016,505.32158Zm-162.96-69.1123,160.66309,66.66455a6.1182,6.1182,0,0,0,4.668-.02784l155.669-66.47851V227.33721a5.50653,5.50653,0,0,0-5.5-5.5h-310a5.50653,5.50653,0,0,0-5.5,5.5Z"
     transform="translate(-315 -194.16259)"
     fill="#3f3d56"
     id="path261" />
  <path
     d="M878,387.83741h-.2002L763,436.85743l-157.06982,67.07a5.06614,5.06614,0,0,1-3.88038.02L440,436.71741l-117.62012-48.8-.17968-.08H322a7.00778,7.00778,0,0,0-7,7v304a7.00779,7.00779,0,0,0,7,7H878a7.00779,7.00779,0,0,0,7-7v-304A7.00778,7.00778,0,0,0,878,387.83741Zm5,311a5.002,5.002,0,0,1-5,5H322a5.002,5.002,0,0,1-5-5v-304a5.01106,5.01106,0,0,1,4.81006-5L440,438.87739l161.28027,66.92a7.12081,7.12081,0,0,0,5.43994-.03L763,439.02741l115.2002-49.19a5.01621,5.01621,0,0,1,4.7998,5Z"
     transform="translate(-315 -194.16259)"
     fill="#3f3d56"
     id="path263" />
  <path
     d="m 378.84324,58.981658 c 8.20296,8.171991 14.70112,22.674307 2.83998,34.645286 -145.01104,148.800526 -11.12781,11.957596 -152.71034,156.131276 -10.71223,10.90904 -28.23992,11.06808 -39.14831,0.35518 l 0.68635,-0.72722 -0.70062,0.71334 c -10.89158,-10.71975 -11.05046,-28.23297 -0.35517,-39.14856 L 346.60559,57.246942 c 5.1435,-5.307667 22.5365,-7.588169 32.23765,1.734714 z"
     fill="#c62828"
     id="path265"
     sodipodi:nodetypes="ccccccccc" />
  <path
     d="m 381.32467,245.21799 c -8.17197,8.20294 -22.67431,14.70112 -34.64529,2.83998 C 197.87884,103.04692 334.72178,236.93014 190.54811,95.347657 179.63905,84.635407 179.48,67.107701 190.19289,56.19932 l 0.72696,0.68665 -0.71334,-0.700609 C 200.92628,45.293767 218.43949,45.134909 229.3551,55.830175 L 383.0595,212.98023 c 5.30767,5.14351 7.58817,22.53648 -1.73468,32.23765 z"
     fill="#c62828"
     id="path265-9"
     sodipodi:nodetypes="ccccccccc" />
</svg>
